<svg xmlns="http://www.w3.org/2000/svg" xmlns:xlink="http://www.w3.org/1999/xlink" width="6048" height="3456">
  <path d="M0 0v3456h6048V0Z" style="fill:none;stroke:#1b1918;stroke-width:.5669;stroke-linecap:butt;stroke-linejoin:miter;stroke-dasharray:none"/>
  <defs>
    <linearGradient id="a">
      <stop offset="0%" stop-color="#e30079"/>
      <stop offset="74%" stop-color="#fff"/>
      <stop offset="100%" stop-color="#fff"/>
    </linearGradient>
    <linearGradient xlink:href="#a" id="b" x1="0" x2="0" y1="0" y2="1" gradientTransform="rotate(90 .5 .5)" gradientUnits="objectBoundingBox"/>
  </defs>
  <path d="M1180.997 1781.196c70.68-10.112 32.68-123.034 167.611-84.454-48.407-26.167-90.06-29.98-144.008.651-39.293 28.851-73.164 49.009-92.156 47.176 55.935 62.896 126.151 82.779 195.525 41.431-53.164 4.815-99.974 7.063-126.972-4.805z" style="fill:url(#b)"/>
  <defs>
    <radialGradient id="c" cx=".5" cy=".5" r="1">
      <stop offset="0%" stop-color="#fff"/>
      <stop offset="100%" stop-color="#cb6c36"/>
    </radialGradient>
  </defs>
  <path d="M1328.457 1775.107a38.862 38.862 0 0 0 2.022-1.366 35.563 35.563 0 0 0 1.952-1.522 32.804 32.804 0 0 0 1.909-1.743 30.996 30.996 0 0 0 1.924-2.083 29.18 29.18 0 0 0 2.004-2.694c.388-.59.754-1.199 1.1-1.824.442-.798.852-1.621 1.223-2.478 1.76-4.067 2.692-8.816 2.574-14.339a49.225 49.225 0 0 0-.471-5.759v-.027a89.72 89.72 0 0 0-1.268-7.017 79.287 79.287 0 0 0-1.056-4.205 70.317 70.317 0 0 0-.879-2.89 66.219 66.219 0 0 0 0-.004 62.638 62.638 0 0 0-.89-2.526v-.01l-.088-.234a54.805 54.805 0 0 0-.89-2.193 47.472 47.472 0 0 0-1.233-2.632 38.81 38.81 0 0 0-2.236-3.865m0 0-.018-.026.02.028m0 0a31.532 31.532 0 0 0-1.385-1.934l-.116-.148-.01-.012c-.736-.936-1.431-1.713-2.112-2.357a12.977 12.977 0 0 0-.939-.809 9.316 9.316 0 0 0-1.73-1.08 8.141 8.141 0 0 0-1.211-.465 9.37 9.37 0 0 0-1.638-.33 13.631 13.631 0 0 0-.297-.03c-.096-.01-.191-.016-.289-.023-.093-.01-.187-.01-.282-.016-.094 0-.188-.01-.283-.011-.092 0-.184 0-.278-.01h-.542l-.265.01-.263.01-.265.012-.263.014-.222.013h-.038l-.26.016-.26.016-.261.015-.267.015-.268.015-.268.014-.269.014-.269.014-.272.013-.276.013-.276.013-.277.011-.277.012-.28.012-.284.012-.285.012-.285.012-.285.012-.29.012-.292.012-.293.011-.292.012-.295.012-.301.012-.3.012-.301.012-.302.013-.308.013-.309.013-.308.013-.31.014-.317.014-.316.015-.315.015-.323.016-.324.016-.322.017-.326.018-.332.018-.33.019-.332.02-.339.02-.337.023-.338.023-.347.025-.345.025-.346.027-.353.028-.35.03-.357.03-.36.034c-.362.034-.724.07-1.086.11l-.367.04-.372.043-.369.045-.379.048-.375.05-.381.053-.382.056-.384.06-.387.061-.387.065c-.677.119-1.352.244-2.029.363l-.443.076-.46.077-.483.08-.502.08-.524.085-.562.088-.598.092-.64.097-.697.104-.77.114-.867.129-1.048.154-1.342.202c-.826.125-1.65.253-2.47.388-.797.13-1.59.267-2.382.412-.864.16-1.727.33-2.588.514a71.254 71.254 0 0 0-2.677.63 58.227 58.227 0 0 0-2.751.777 59.05 59.05 0 0 0-1.488.487 48.517 48.517 0 0 0-2.554.96l-.116.046-.452.184-.52.208-.49.19-.47.18-.444.167-.426.157-.415.151-.395.142-.391.14-.374.131-.371.13-.357.124-.354.121-.346.118-.339.115-.337.114-.326.11-.325.11-.32.107-.314.105-.314.105-.307.103-.304.101-.303.102-.299.1-.294.099-.295.099-.291.098-.286.097-.287.097-.286.098-.28.096-.28.096-.279.097-.278.097-.272.096-.272.096-.273.098-.271.097-.267.097-.266.097-.268.099-.266.099-.26.098-.262.1-.262.1-.263.102-.256.1-.257.102-.257.103-.258.105-.254.104-.252.105-.253.106-.253.108-.254.11-.248.108-.249.11-.248.112-.25.115-.248.115-.245.114-.245.117-.245.119-.246.12-.244.123-.24.122-.242.124-.242.127-.242.13-.24.13-.238.13-.238.134-.239.136-.239.138-.237.14-.234.141-.234.143-.235.148-.236.15-.233.15-.23.153-.232.154-.231.16-.232.162-.23.163a34.7 34.7 0 0 0-.226.166l-.228.169-.227.171-.229.178-.125.098-.1.082a30.707 30.707 0 0 0-.446.37l-.225.199a12.669 12.669 0 0 0-.665.627 16.13 16.13 0 0 0-.66.706c-.073.085-.144.17-.214.255-.073.088-.146.175-.216.264a12.341 12.341 0 0 0-.428.579 12.827 12.827 0 0 0-.419.636l-.01.367.01-.367a11.647 11.647 0 0 0-.409.726c-.013 7.027 1.45 14.375 4.539 21.622a89.695 89.695 0 0 0 1.392 2.168 110.132 110.132 0 0 0 1.64 2.413c.33.474.663.946.996 1.413l.3.42a110.197 110.197 0 0 0 2.384 3.202 61.33 61.33 0 0 1 .002.002 94.894 94.894 0 0 0 2.033 2.532h.001a82.466 82.466 0 0 0 3.148 3.573c2.002 2.141 4.098 4.135 6.29 5.929a49.85 49.85 0 0 0 5.027 3.636l-.17-.119.174.121a41.93 41.93 0 0 0 2.926 1.682c.71.37 1.427.717 2.152 1.04 2.88 1.281 2.515 1.191 5.788 1.99a31.365 31.365 0 0 0 4.863.786 31.304 31.304 0 0 0 2.383.1h.24l.503-.01c.26 0 .52 0 .782-.01.268 0 .537-.01.806-.016.278-.01.557-.014.836-.022.292-.01.585-.017.878-.028a98.276 98.276 0 0 0 1.923-.087 96.331 96.331 0 0 0 2.215-.14 111.998 111.998 0 0 0 4.472-.42 93.64 93.64 0 0 0 2.305-.297c3.614-.51 7.192-1.231 10.629-2.208a63.522 63.522 0 0 0 2.5-.764 58.563 58.563 0 0 0 3.5-1.276 51.99 51.99 0 0 0 1.45-.607 48.932 48.932 0 0 0 3.719-1.83 42.905 42.905 0 0 0 2.159-1.269zm-59.11-.012zm-.2.163zm-17.874 49.506-.115-.153.115.153m-5.08-38.059c-.112.833-.112.833 0 0zm85.715-2.579zm.72-.247zm-61.294 56.603c-1.69-.924-.831-.455 0 0zm-31.04-43.695c.074.677.128 1.165 0 0z" style="fill:url(#c)"/>
  <path d="M1379.25 1747.483c5.682-2.327 11.075-5.302 17.225-6.515 3.058-.6 16.64-4.814 19.406-3.034-5.285-3.4-11.986-5.675-17.73-6.458-14.842-2.003-26.082 2.126-36.255 10.961-7.69 6.68-13.713 13.274-17.873 23.386 7.37-4.184 15.427-8.186 23.077-12.498 3.92-2.215 7.983-4.139 12.15-5.842z" style="fill:#cd9d74;fill-rule:evenodd"/>
  <path d="M1231.109 1749.962c2.483-3.304 4.998-6.58 7.702-9.68 4.187-4.792 9.503-8.23 14.13-12.502 4.657-4.294 7.052-8.26 13.036-10.91 12.413-5.497 26.007-8.724 40.328-9.311 17.792-.728 36.246.94 54.704 5.785 8.591 2.256 17.771 6.079 26.06 10.199 9.687 4.818 18.35 12.49 28.61 15.076-20.049-15.514-39.087-35.718-61.832-45.247-20.922-8.763-43.148-5.45-62.502-2.883-10.155 1.345-21.152 3.224-30.57 6.834-9.386 3.598-17.664 12.474-25.036 19.21-8.116 7.41-16.087 15.247-23.868 23.161-9.666 9.83-18.882 19.943-29.808 27.79-10.49 7.531-22.163 7.139-36.027 2.673 7.891 4.543 15.438 10.945 23.87 12.77 11.475 2.481 28.747 3.596 37.325-3.167 6.095-4.803 9.949-12.273 14.903-18.19 3.128-3.735 6.031-7.691 8.975-11.608z" style="fill:#cd9d74;fill-rule:evenodd"/>
  <path d="M1248.586 1752.59c-3.065-7.341-4.517-14.785-4.503-21.905-3.25 6.38-.121 14.307 4.503 21.905z" style="fill:#5d1407;fill-rule:evenodd"/>
  <path d="M1325.82 1718.823c3.441 7.336 6.376 13.607 7.563 21.272 1.186 7.657-.251 14.43-3.038 20.645-1.39 3.095-5.1 10.27-8.774 10.634 8.726-.872 15.342-6.346 18.455-14.712 1.998-5.374 1.491-11.72.407-17.734-2.513-13.908-9.04-25.559-21.944-32.083-.124-.077-.124-.08 0-.01 2.248 1.952 3.558 4.483 4.93 7.123.827 1.599 1.63 3.22 2.398 4.863zm-60.397 47.927c2.552 2.903 6.437 5.559 8.528 8.531-3.372 1.478-10.364-5.316-13.148-7.95-4.532-4.29-8.494-9.51-10.859-15.295-3.869-9.462-3.744-22.792 4.769-26.573-1.466.651-1.689 7.049-1.87 8.705-.252 2.316-.375 4.56-.085 7.022.599 5.08 2.492 10.2 5.138 14.944 2.1 3.76 4.64 7.3 7.472 10.552.017.022.037.042.054.064z" style="fill:#4e2a04;fill-rule:evenodd"/>
  <path d="M1310.189 1702.924c16.843.12 36.755 2.49 52.988 7.893 6.437 2.117 13.26 5.203 19.36 8.192 6.36 3.22 13.776 9.723 20.703 11.392-20.404-5.023-39.57-15.92-60.49-18.64-21.384-2.842-43.44-1.876-62.571 6.49-10.095 4.413-20.648 8.415-29.105 15.344-4.112 3.366-6.276 6.964-8.913 11.4-3.226 5.444-8.507 9.835-12.604 14.563-3.637 4.202-7.053 7.972-11.338 11.521-8.72 7.222-17.328 11.64-29.17 13.426-6.436.97-13.78.632-20.515-1.725-4.637-1.624-8.93-5.133-13.53-6.367a8.93 8.93 0 0 0 2.086.68c11.2 2.306 22.528 1.291 32.182-3.12 4.91-2.24 9.548-5.903 14.21-8.752 4.084-2.498 8.057-4.528 11.458-7.887 6.87-6.786 11.737-14.377 17.883-21.811 9.09-10.99 20.35-19.878 34.094-24.902 13.945-5.097 27.87-7.924 43.272-7.697z" style="fill:#12160f;fill-rule:evenodd"/>
  <path d="M1247.963 1782.92c11.606-.421 23.226-.762 34.89-.84 20.883-.143 39.871-3.067 55.457-15.485 10.786-8.598 17.55-19.068 27.14-28.289 11.283-10.85 31.834-14.4 45.749-2.469-19.886-1.617-32.752-2.182-47.716 10.34-12.222 10.158-20.901 23.434-34.04 32.718-10.53 7.408-57.332 14.535-56.906 30.64-.222-8.817 9.327-17.236 15.735-20.126-12.675 1.459-23.27 10.31-29.723 20.61 3.165-8.615 8.776-16.604 17.153-20.86-13.872 3.413-26.732 8.93-34.563 21.11 2.377-10.023 11.767-18.5 20.999-22.179-13.371 1.157-26.95 12.5-34.316 22.62 2.228-8.537 11.18-15.516 18.586-19.586-13.858 4.768-24.334 9.842-34.126 20.525 4.61-10.505 13.192-17.81 24.547-20.651-13.007 5.067-27.512 4.217-38.899 13.16 3.588-2.817 5.511-7.493 9.246-10.294 3.932-2.952 8.577-5.462 13.918-5.604-10.492.013-22.015-2.418-31.988.176 6.602-4.113 18.965-4.025 27.216-4.318 10.558-.374 21.094-.818 31.641-1.198z" style="fill:#12160f;fill-rule:evenodd"/>
  <path d="M1301.791 1684.122c-19.099 1.333-40.216 7.285-50.864 20.574 3.673-5.408 16.932-8.331 23.308-10.232 38.941-11.627 91.694-4.949 124.142 32.69-22.14-25.681-53.17-42.275-84.411-43.275a119.904 119.904 0 0 0-12.175.243z" style="fill:#b05837;fill-rule:evenodd"/>
  <path d="M1169.428 1772.705c19.213 5.106 49.221-2.865 58.796-17.824-13.784 8.163-40.312 12.056-53.776.162 25.35 11.178 48.826-6.178 66.88-17.555-8.217 8.951-34.823 13.991-42.32.997 14.718 10.149 39.158-1.532 50.877-9.24-11.423 4.445-25.299 2.646-34.242-6.072 21.035 12.851 37.08-5.878 55.593-5.297-11.56 8.69-21.75 19.024-31.268 29.866-8.78 10.001-16.81 22.115-30.076 26.74-12.805 4.463-26.698 1.882-40.464-1.777z" style="fill:#12160f;fill-rule:evenodd"/>
  <path d="M1272.042 1718.885c-9.176 3.817-19.79 4.218-29.006 8.01-8.562 3.521-17.26 5.619-27.344 1.555 7.029 2.834 13.778 3.966 20.526 3.61-3.871 4.33-18.831 2.519-25.098-1.414 7.05 3.967 14.846 6.551 21.447 5.62-7.165 2.198-16.807.929-24.802-3.267 6.432 4.412 14.193 5.582 20.641 6.312-3.34.97-4.096 5.878-7.485 7.213-4.086 1.604-16.425 2.532-21.117-2.25 6.84 4.8 14.21 8.597 20.556 5.351-4.996 2.48-17.03 2.84-22.935-1.403 7.147 3.858 12.526 5 19.259 3.878-4.243 4.1-13.003 2.288-19.167 1.23 6.498 3.11 12.12 2.412 18.024 2.53-6.73 3.712-12.874 1.428-20.696.443 7.209 3.494 12.732 2.872 19.278 2.608-1.642 10.795-18.096 6.809-25.829 5.597-.197-.103-.193-.11.01-.016 6.405 3.77 19.862 4.552 24.368.778-1.598 4.36-9.214 5.708-13.303 6.532-5.189 1.043-11.362-1.475-16.286-1.072 3.408-.28 9.792 3.986 13.61 4.662 5.186.924 10.915-1.155 14.682-3.957-9.23 7.497-23.811 15.996-37.247 14.02 10.13 3.683 19.536 2.125 28.2-1.773 4.796-2.156 10.373-5.043 13.779-9.004 6.426-7.474 9.521-16.922 15.996-24.483 4.78-5.58 8.577-11.948 12.934-17.736 3.71-4.928 10.353-7.443 15.948-9.848 3.024-1.3 7.533-4.05 11.061-3.727z" style="fill:#1b1918;fill-rule:evenodd"/>
  <path d="M1329.705 1708.37c-10.58-.852-21.078-5.181-31.684-6.075-9.855-.829-19.222-2.904-27.278-10.719 5.613 5.45 11.688 9.356 18.41 12.025-5.638 1.904-19.41-6.175-23.81-12.203 5.145 6.4 11.614 11.977 18.438 14.1-7.92-1.317-16.753-6.61-22.72-13.617 4.355 6.502 11.398 10.884 17.357 14.325-3.67-.66-6.526 3.094-10.4 2.714-4.67-.458-17.076-5.107-19.576-11.148 4.583 7.002 10.113 13.4 17.688 13.489-5.93-.133-17.795-5.12-21.71-11.248 5.292 6.353 10.03 9.668 17.065 11.689-5.9 1.553-13.641-3.809-19.18-7.395 4.98 5.443 10.75 7.332 16.445 10.026-8.154.131-13.143-4.468-20.33-8.724 5.505 6.076 11.146 7.984 17.63 10.643-6.262 8.265-20.55-2.283-27.552-6.692-.147-.17-.139-.172.013-.01 4.605 5.954 17.362 12.514 23.374 11.353-3.44 2.93-11.43.706-15.766-.408-5.497-1.408-10.417-6.217-15.383-8.045 4.36 4.964 8.468 7.577 14.033 9.817 4.809 1.934 8.855 1.69 13.494 2.976-.414-.115-7.348 6.607-8.799 7.098-3.752 1.278-7.828 1.507-11.776 2.025-7.283.945-16.353-.986-23.227-5.062 3.95 1.627 7.694 5.236 11.685 7.325 4.506 2.354 8.89 3.374 13.657 3.646 10.744.61 18.53-7.033 26.886-12.568 6.475-4.294 13.344-8.196 20.62-10.819 7.06-2.544 13.509-6.179 20.251-9.082 5.74-2.473 13.287-1.65 19.77-1.194 3.508.25 9.081-.062 12.374 1.758z" style="fill:#1b1918;fill-rule:evenodd"/>
  <path d="M1382.53 1655.882c-7.847-11.867-13.802-24.406-22.801-35.638-8.93-11.149-19.678-19.58-31.112-26.5 22.158 13.445 38.196 38.87 53.006 61.86zm-12.83-8.632c-3.091-10.292-16.892-23.776-24.183-30.854-10.966-10.644-23.904-18.915-36.652-25.11 17.321 13.67 41.456 23.19 52.751 45.674z" style="fill:#b1b3b4;fill-rule:evenodd"/>
  <path d="M1361.728 1640.84c-15.216-23.145-41.512-39.427-64.394-51.34 14.879 9.75 32.539 21.15 44.4 33.791-14.152-13.031-33.687-26.234-50.107-31.643 14.156 11.412 30.195 20.178 43.845 32.042-16.007-16.683-42.444-26.808-61.355-33.274 15.395 11.97 34.679 16.875 50.443 29.032-13.43-10.525-30.168-17.248-45.026-20.819 12.377 6.489 24.413 11.517 36.447 19.577-6.282-3.212-12.975-8.45-19.472-9.017 4.863 2.75 9.449 6.128 14.073 9.438-6.932-4.963-18.059-9.087-25.648-12.022-5.965-2.311-13-1.78-18.642-5.23 7.017 2.06 15.259 6.997 21.916 11.183-7.07-3.02-14.572-3.725-21.603-4.028 4.74.735 9.686 3.553 14.403 4.998-5.866-2.45-11.863-2.208-17.606-2.024-6.12.193-13.562-.83-18.996 1.651 6.96.258 14.193 1.65 21.226 2.013-11.328-1.549-23.717-4.357-34.608-2.84 7.819 2.123 15.832 4.063 23.671 5.51-10.58-2.48-21.283-.84-31.246 1.05 4.64 2.254 12.074 1.927 16.859 1.259-7.598 1.023-15.504.965-22.97 2.447 2.34 1.114 5.93.601 8.394.2-5.408.193-11.11-.072-16.223 1.246 2.538-.043 5.197-.036 7.749.556-5.621.457-10.952 2.337-16.508 3.082 1.841-.1 3.8-.318 5.662.067-4.23 1.944-9.78 2.284-14.481 3.103 2.273.153 4.427-.396 6.531-.842-4.366 1.693-10.073 1.231-13.6 4.587.938-.09 2.474.185 3.226.122-2.65 1.267-5.763 1.348-8.228 2.994 1.088-.067 2.464.443 3.54.45-5.476 5.65-17.334 2.547-24.307 6.21 2.512.743 5.783.331 7.942 1.864-4.266.012-9.392 1.31-12.846 3.349 1.516-.012 3.21.372 4.694.508-3.044.997-6.52 1.207-9.167 2.893.958.062 2.052.656 3 .807-1.551 2.442-4.91 2.46-6.933 4.435.95.084 1.976.718 2.509.85-2.213.853-4.955 1.652-4.206 4.629-3.774 3.44-6.962 5.683-10.794 9.147l.452.871c-2.123 3.523-5.34 4.87-7.338 7.885-1.462 2.204-2.7 4.165-4.167 6.332-2.538 3.752-5.752 6.902-8.1 10.832-1.535 2.562-2.226 6.431-4.546 8.115 2.051.09 4.078-.042 6.135.095-2.761.299-5.823 1.409-7.83 3.262 2.074-.14 4.523.374 6.542.922-3.202.713-6.82 1.314-9.473 3.317 2.64.17 5.226-.325 7.87-.068-2.744 1.01-5.776 1.644-8.156 3.508 1.932.351 3.949.23 5.7-.297-2.325.973-4.927 1.592-6.909 3.246 2.008-.124 4.108-.023 6.075-.415-2.631 1.665-7.016 1.673-8.598 4.397 1.86-.035 3.949-.28 5.966.146-1.655 1.523-3.908 2.103-5.513 3.712 1.362-.032 3.08.205 4.315.607-1.865 1.213-4.168 1.744-5.977 3.197 1.028-.144 2.403.3 3.096.304-1.576 1.123-3.451 1.852-4.985 3.167 2.185-1.876 6.153-.256 7.904-3.006-2.288 1.186-4.552 2.476-6.851 3.67 4.778-3.626 9.361-7.974 15.068-9.84-3.881.45-8.06 2.428-11.488 4.139 2.647-1.324 5.465-2.892 7.98-4.499-2.969.397-5.941 1.5-8.708 2.651 1.817-2.588 6.98-1.738 9.461-4.153-2.762 0-5.356.983-8.008 1.103 3.64-1.509 8.415-1.825 11.53-4.324-2.739.785-5.97.716-8.76.76 3.715-2.416 9.142-3.152 13.357-4.944-3.339.222-6.745-.1-9.951.705 4.41-2.01 9.953-1.987 13.828-5.14-2.852.218-5.79-.055-8.68-.098 3.706-1.677 8.662-1.955 11.768-4.6-3.694-.128-7.307.617-10.845.987 4.182-2.555 9.983-2.652 14-5.638-3.143-1.002-6.831-.52-9.702-.59 3.832-2.212 9.117-3.194 13.372-4.96-3.364-.012-6.734.735-10.113.193 3.256-1.436 6.994-2.393 10.544-3.137-2.063.338-4.169.755-6.176 1.168 3.393-1.03 8.427-1.29 10.91-3.85-2.999-.865-6.15-1.044-9.18-1.343 4.086-.78 8.835.54 12.793-.834-3.735-.468-7.648-1.478-11.199-1.828 5.744-.168 12.45 1.037 17.79-.433-4.972-2.044-9.829-1.482-14.665-3.179 5.66.281 14.623 1.685 19.102-1.186-4.778-1.595-10.181-1.8-14.748-3.023 5.809-1.275 12.388-.35 18.447-1.446-4.923-.771-10.72-.621-15.375-2.811 6.556-2.501 12.523-2.887 17.81-8.025-1.441.09-2.996-.113-4.47-.214 1.97-1.784 8.6-4.927 11.26-3.927a1.707 1.707 0 0 0-1.056-.072c4.835-1.407 10.568-1.275 15.631-2.18-4.01-1.002-8.117-.742-12.15-1.283 8.032-1.474 18.435 1.328 25.827-1.298-5.177-1.127-10.488-2.659-15.648-3.419 2.939-.146 6.414.224 8.954-.295-1.135-.378-2.894-1.161-4.29-1.386 5.762.87 12.44 3.581 18.29 3.265-4.585-3.284-10.404-3.905-15.376-5.347 7.823 0 16.186 5.101 23.97 4.587-6.578-3.51-13.662-5.032-20.523-6.399 7.572 1.23 15.28 3.126 22.889 4.567-6.053-2.852-12.875-4.153-19.031-7.295 8.279.262 17.271 2.884 25.605 5.31-5.7-3.806-13.397-7.427-19.49-8.222 9.94 2.06 22.032 8.732 31.505 8.654-8.111-6.444-17.62-8.244-26.474-12.22 9.627 2.942 19.963 5.909 29.577 7.977-6.906-6.191-18.76-8.211-26.912-9.963 10.617 1.374 21.315 4.636 31.861 8.122-7.86-4.275-16.989-7.06-25.155-9.58 7.952-.921 17.083 5.192 25.19 6.692-6.075-1.918-13.423-5.52-19.646-6.01 8.791 1.213 17.615 5.063 26.307 7.573-7.338-5.114-14.976-8.577-22.867-10.172 10.67.86 22.263 5.334 32.965 8.951-8.603-2.414-17.87-10.615-26.386-11.187 7.47-1.722 15.53 1.881 23.254 3.653 5.88 1.352 16.516 1.425 21.689 5.622-9.324-7.561-21.236-8.657-31.208-14.706 5.25-1.232 14.515 4.16 19.978 6.225 8.258 3.122 16.48 6.967 24.669 9.888-9.15-6.334-18.97-10.445-28.323-15.654 9.907 1.021 20.114 7.725 30.205 8.39-7.374-4.653-16.357-6.351-23.132-12.09 12.946.596 27.37 10.854 40.69 12.718-9.37-6.81-20.27-10.501-29.343-17.555 13.877-.075 29.654 15.338 43.106 19.592-10.709-9.903-25.048-14.25-36.702-22.236 17.719 7.68 34.19 21.933 51.918 29.05-11.804-7.995-22.094-19.933-34.15-27.21 15.04 7.093 29.94 22.313 45.371 26.35-10.15-10.176-23.066-16.637-34.298-23.953 13.59 6.38 26.833 16.915 39.708 25.661-8.485-6.775-15.927-16.833-24.613-22.86 12.582 7.71 24.196 19.723 36.36 28.651-8.996-9.45-17.483-20.177-27.232-28.589 9.924 5.992 17.202 16.39 26.236 23.981-5.885-5.117-13.144-13.138-17.52-19.815 10.516 7.75 18.301 20.472 28.31 29.292-8.76-7.648-14.769-19.609-24.03-27.01z" style="fill:#1b1918;fill-rule:evenodd"/>
  <path d="M1345.679 1640.942c.283-.092 1.63 1.18.983.381-6.619-9.837-19.789-18.337-28.673-24.552-10.02-7.002-21.462-13.933-32.236-17.037 8.802 2.347 19.175 11.295 27.342 16.578 6.521 4.223 13.57 8.388 19.315 14.106-15.361-12.447-35.757-22.353-52.914-27.043 12.262 6.323 24.032 14.935 36.161 21.503-11.949-8.074-25.092-11.573-36.97-19.087 10.362 6.855 21.65 11.209 31.7 19.052-3.416-1.927-6.578-4.712-10.104-6.25 8.828 5.53 19.88 14.143 27.24 22.297-16.919-11.074-34.4-19.532-51.822-28.709 11.157 5.534 25.646 13.013 35.491 21.764-17.024-8.616-33.166-16.95-50.745-22.795 14.223 6.757 29.497 14.635 42.817 24.193-13.036-6.148-26.523-13.09-40.088-16.84 10.421 6.954 22.974 9.954 33.05 18.212-16.738-6.848-37.095-18.837-54.31-18.521 14.654 9.27 33.089 12.8 48.484 19.221 8.267 3.451 18.2 11.394 26.243 12.956-7.405-5.029-14.692-10.577-22.32-14.999 7.888 1.936 16.17 9.172 24.359 11.377-6.442-5.601-14.07-9.2-20.884-13.603 6.954 4.256 15.638 10.033 22.913 11.985-6.81-5.673-13.996-10.932-21.003-16.239 12.597 4.126 25.09 15.818 37.465 21.964-2.816-3.74-6.37-6.843-9.922-9.275 4.96 2.766 13.063 9.9 17.627 9.575-8.26-14.45-22.984-20.656-34.179-30.785 12.537 5.635 27.626 16.952 39.074 26.156-9.504-9.528-21.126-16.664-31.406-24.433 10.022 3.358 22.42 14.224 31.782 21.12-5.891-6.374-13.914-10.55-20.628-15.382 5.673 3.578 11.268 7.555 16.716 11.725zm31.858 11.216c-8.21-8.348-14.9-30.313-16.961-41.95 3.834 10.169 6.852 21.04 10.734 30.929-5.017-12.274-15.508-27.226-22.002-37.31 7.747 12.086 14.363 24.499 21.006 37.118-8.426-13.053-17.506-29.798-28.87-39.399 9.308 11.394 17.643 24.23 25.83 36.941-7.95-13.972-26.662-34.919-40.036-40.604 15.553 12.907 29.547 27.78 41.048 45.556-9.306-14.98-27.326-29.684-41.019-37.898 18.988 16.03 40.963 36.885 53.315 60.43-1.323-5.855-5.508-11.543-8-17.048 1.933 2.842 4.487 9.832 7.437 13.607-1.718-6.61-6.556-12.704-8.17-19.255a480.803 480.803 0 0 0 4.433 6.935z" style="fill:#b1b3b4;fill-rule:evenodd"/>
  <path d="M1349.988 1641.54c-7.361-12.834-25.516-18.682-36.384-26.358 8.608 4.853 16.529 13.015 24.24 19.819-7.889-5.328-17.909-14.375-26.414-16.143 7.021 5.463 14.572 10.177 21.296 16.297-11.231-6.443-21.883-13.362-33.535-18.578 7.416 5.64 17.265 8.957 23.55 16.397-10.326-6.116-22.653-13.78-33.607-15.033 6.402 5.112 14.106 7.878 20.849 12.238-9.869-2.66-19.488-9.844-29.599-10.982 3.623 1.623 7.53 3.629 11.265 5.444-4.71-1.113-9.464-3.817-14.014-5.246 21.001 7.271 45.328 18.31 64.645 32.59-7.95-5.522-16.52-10.967-24.152-17.036 8.447 1.26 18.946 9.6 27.17 13.804-5.31-5.279-12.35-10.685-18.275-14.72 7.186 2.749 13.727 8.553 20.786 11.84-4.35-3.158-8.032-7.56-12.468-10.484 7.342 3.816 13.877 10.071 20.93 14.701-2.986-4.824-7.884-7.013-11.51-11.144 7.924 2.458 16.725 10.933 24.104 16.023-7.816-10.111-23.025-19.546-32.995-26.69 5.273 2.723 10.738 6.943 15.165 11.505z" style="fill:#b1b3b4;fill-rule:evenodd"/>
  <path d="M1357.05 1633.602c8.52 8.18 14.955 20.904 21.671 30.986-3.406-3.006-6.101-7.876-9.21-11.442-3.673-4.216-7.868-7.682-11.485-11.905 5.542 5.876 10.33 12.418 15.346 18.724-5.71-4.374-11.056-11.764-16.545-17.07 4.42 6.242 10.22 11.068 14.278 17.726-5.457-7.067-11.315-13.988-18.035-19.359 5.592 5.228 11.108 11.65 15.231 18.504-4.456-7.108-11.94-13.237-18.232-17.777 5.564 5.979 12.061 12.136 16.468 19.317-6.758-6.026-12.688-13.072-19.796-18.81 4.75 5.407 9.659 10.655 14.468 15.93-5.79-4.53-11.7-11.012-17.597-16.052 5.253 7.11 14.972 13.55 18.445 21.35-7.829-7.424-14.214-16.238-23.003-22.323 7.312 7.368 16.761 15.379 22.144 24.7-7.617-11.178-20.188-20.902-30.816-26.99 4.911 5.201 11.31 9.138 15.488 15.305-6.321-5.05-12.22-11.207-19.172-14.75 5.135 5.525 10.758 10.587 15.938 16.005-6.922-3.27-13.816-15.016-21.75-14.75 3.702 4.138 11.104 8.204 12.958 13.098-4.91-4.01-11.223-10.472-16.907-11.417 3.787 4.613 8.992 7.639 12.468 12.524-7.558-3.277-14.032-12.418-22.33-14.829 4.139 3.67 8.956 6.547 12.572 11-7.147-4.433-14.677-11.603-22.448-13.157 4.32 3.994 9.412 6.863 13.73 10.864-7.03-2.461-14.095-11.87-21.482-11.819 4.41 3.054 10.61 5.45 14.098 9.881-7.341-1.924-14.393-10.086-21.811-10.576 2.722 3.293 6.843 4.82 9.911 7.78-6.125-2.362-12.297-6.335-18.476-8.124 3.686 3.42 8.062 5.513 11.704 8.912-4.717-.634-11.119-5.675-16.112-7.717 1.751 1.01 3.927 1.753 5.682 2.808-5.145-2.175-10.71-4.52-15.547-7.858 3.73 1.224 7.53 3.09 11.289 4.008-3.867-1.178-8.155-3.929-11.298-7.307 4.575 0 9.408 2.36 14.022 2.646-1.748-1.545-3.524-3.134-4.912-5.06 5.323.031 10.803 2.975 16.089 3.228-1.806-1.69-3.776-3.19-5.131-5.38 6.527 2.06 12.898 5.987 19.549 7.126-3.413-2.826-7.076-5.097-10.412-8.072 6.67 4.22 14.738 9.546 21.747 10.958-5.091-3.853-10.778-7.441-16.128-10.63 7.14 4.581 17.266 10.67 24.888 11.85-5.679-5.681-13.146-8.984-18.542-15.23 10.963 2.682 21.397 12.934 32.29 16.31-4.315-6.913-13.09-13.01-18.933-18.505 8.694 6.08 17.996 12.304 27.01 17.45-3.702-4.952-8.782-9.27-12.06-14.55 6.642 3.688 12.736 9.818 19.546 13.074-4.898-5.239-10.33-10.16-15.446-15.177 4.893 3.39 9.655 7.21 14.576 10.584-5.182-3.742-10.037-8.45-14.828-12.846 6.848 2.423 12.85 9.472 19.183 13.582-3.35-3.247-6.72-6.482-9.924-9.942 6.093 3.441 11.532 9.972 17.61 13.99-3.94-1.882-8.794-5.915-11.799-9.76 4.791 4.648 10.779 8.375 15.945 12.47z" style="fill:#c4c6c8;fill-rule:evenodd"/>
  <path d="M1276.944 1745.86c-2.9-3.789-4.656-8.624-4.397-14.228.73-15.81 21.497-24.039 32.022-10.933 5.604 6.98 8.983 17.98 4.757 25.73-6.795 12.47-24.17 10.15-32.382-.57z" style="fill:#12160f;fill-rule:evenodd"/>
  <path d="M1273.29 1747.774c-3.02-4.39-11.257-6.299-11.54-.436-.379 7.837 12.25 11.001 12.627 3.99.07-1.28-.355-2.49-1.087-3.554zm15.016 12.429c-1.579-1.94-5.926-2.385-6.199.603-.661 7.227 8.044 4 6.634.146a2.628 2.628 0 0 0-.435-.749z" style="fill:#fff;fill-rule:evenodd"/>
  <defs>
    <linearGradient id="d">
      <stop offset="0%" stop-color="#a4027c"/>
      <stop offset="74%" stop-color="#fff"/>
      <stop offset="100%" stop-color="#fff"/>
    </linearGradient>
    <linearGradient xlink:href="#d" id="e" x1="0" x2="0" y1="0" y2="1" gradientTransform="rotate(90 .5 .5)" gradientUnits="objectBoundingBox"/>
  </defs>
  <path d="M1728.88 1662.472c-62.593 12.076-77.229-91.336-173.103-20.884 29.366-35.369 62.266-50.487 119.389-40.94 44.274 12.308 80.515 19.06 95.478 12.09-20.609 67.612-70.58 104.115-144.835 90.236 45.942-11.368 85.58-23.008 103.07-40.502z" style="fill:url(#e)"/>
  <defs>
    <radialGradient id="f" cx=".5" cy=".5" r="1">
      <stop offset="0%" stop-color="#fff"/>
      <stop offset="100%" stop-color="#cb6c36"/>
    </radialGradient>
  </defs>
  <path d="M1605.316 1700.478a39.508 39.508 0 0 1-3.333-.885 35.165 35.165 0 0 1-4.607-1.823 31.979 31.979 0 0 1-4.001-2.292 31.354 31.354 0 0 1-1.657-1.2 31.36 31.36 0 0 1-2.028-1.705c-3.125-2.872-5.853-6.545-8.038-11.16a47.602 47.602 0 0 1-1.994-4.912l-.01-.024a83.12 83.12 0 0 1-1.86-6.183 71.582 71.582 0 0 1-.871-3.79 61.743 61.743 0 0 1-.474-2.65 56.071 56.071 0 0 1 0-.003 54.379 54.379 0 0 1-.314-2.35v-.01l-.024-.218a46.218 46.218 0 0 1-.175-2.074c-.053-.853-.08-1.7-.078-2.536 0-1.313.08-2.6.238-3.845m0 0v-.027.029m.001 0c.087-.68.198-1.348.337-2l.034-.156v-.013c.218-.987.467-1.83.76-2.559a9.51 9.51 0 0 1 .436-.939 6.696 6.696 0 0 1 .973-1.39 6.165 6.165 0 0 1 1.054-.915 7.067 7.067 0 0 1 .722-.437 9.385 9.385 0 0 1 .466-.231 12.864 12.864 0 0 1 .453-.196l.227-.09.226-.084.224-.08c.073-.024.146-.05.221-.074l.22-.071.22-.068.222-.066.221-.065.188-.052.032-.01.22-.06.22-.062.22-.062.226-.064.226-.064.226-.065.226-.065.227-.066.229-.067.232-.068.231-.068.233-.069.233-.069.234-.07.238-.07.24-.073.238-.07v-.001l.239-.072.242-.073.246-.074.245-.074.245-.074.246-.074.252-.076.252-.076.252-.076.253-.076.259-.077.258-.077.258-.077.261-.077.266-.078.265-.078.265-.078.271-.08.273-.078.272-.078.275-.08.28-.078.279-.078.28-.078.287-.08.287-.077.287-.077.294-.08.294-.076.295-.077.302-.077.3-.076.305-.076.309-.075c.312-.075.624-.148.937-.22l.318-.071.323-.071.321-.068.331-.07.329-.065.335-.065.335-.063.34-.061.343-.06.345-.057c.604-.095 1.21-.184 1.815-.28l.395-.063.409-.067.43-.072.445-.076.465-.08.498-.088.529-.094.565-.102.616-.113.678-.125.766-.142.924-.17 1.184-.217c.73-.132 1.46-.261 2.189-.384.707-.12 1.414-.233 2.124-.338a78.116 78.116 0 0 1 2.337-.314 62.17 62.17 0 0 1 3.394-.31c.285-.017.57-.032.856-.046.261-.012.523-.022.787-.029.242-.01.485-.013.73-.016.23 0 .46-.01.693-.01h.66c.21 0 .42.01.632.013.203.01.406.013.61.021l.59.028.115.01.447.024c.17.01.342.016.513.023l.481.018.46.015.433.011.415.01.403.01h6.965l.276-.001h.275l.27-.001h.538l.268.002h1.572l.26.01.259.01.255.01.255.01.257.01.257.01.252.01.253.01.254.013.255.013.251.014.25.015.252.016.253.017.253.018.248.019.25.02.25.023.253.023.251.025.248.025.25.027.25.028.251.03.251.032.248.032.25.035.25.036.253.038.252.04.248.04.25.043.253.045.253.046.253.049.25.05.251.052.254.055.256.057.253.059.253.06.253.063.256.066.258.068.255.07.255.073.256.075.258.078.261.082.143.045c.04.013.077.027.116.039a18.201 18.201 0 0 1 1.321.495c.09.038.181.076.27.115a15.529 15.529 0 0 1 .833.398c.096.049.188.1.282.15.096.052.192.103.286.157a12.71 12.71 0 0 1 .59.358l.299.193c.104.07.207.142.308.215l.156.303-.156-.303a12.192 12.192 0 0 1 .636.485 50.445 50.445 0 0 1 5.211 19.234 70.888 70.888 0 0 1-.247 2.197 83.818 83.818 0 0 1-.349 2.47c-.075.488-.153.974-.233 1.457l-.072.434a83.194 83.194 0 0 1-.633 3.337 47.495 47.495 0 0 0-.001.002 72.277 72.277 0 0 1-.623 2.682 61.744 61.744 0 0 1-1.107 3.864c-.758 2.348-1.655 4.601-2.712 6.715a36.088 36.088 0 0 1-2.624 4.454l.091-.148-.093.15a30.298 30.298 0 0 1-1.706 2.232c-.43.51-.875 1.002-1.337 1.477-1.834 1.886-1.572 1.707-3.928 3.305a23.838 23.838 0 0 1-2.287 1.37 21.35 21.35 0 0 1-.708.36 23.889 23.889 0 0 1-1.32.591 23.677 23.677 0 0 1-1.266.485l-.197.07-.415.14-.645.215a98.763 98.763 0 0 1-1.363.438 84.606 84.606 0 0 1-2.347.706 109.67 109.67 0 0 1-1.875.516 88.27 88.27 0 0 1-5.86 1.342c-3.177.61-6.412 1.034-9.636 1.206a60.538 60.538 0 0 1-4.194.08 51.497 51.497 0 0 1-4.347-.266 46.582 46.582 0 0 1-2.477-.33 42.16 42.16 0 0 1-2.296-.437h-.001zm48.511-16.901c.078.025.155.052.232.078-.077-.026-.154-.053-.232-.078zm.232.078zm35.132 35.96.031-.16-.03.16m-11.562-33.023c.437.658.437.658 0 0zm-71.42 22.354zm-.692 0zm73.704 29.441c1.005-1.25.494-.615 0 0zm7.417-45.118c.219.583.377 1.004 0 0z" style="fill:url(#f)"/>
  <path d="M1551.131 1691.962c-5.65-.268-11.324-1.152-16.906-.374-2.774.39-15.73.85-17.29 3.105 2.984-4.306 7.599-8.1 12.032-10.395 11.46-5.915 22.441-5.77 34.46-1.465 9.087 3.255 16.76 6.92 24.326 14.003-7.803-1.305-16.101-2.261-24.188-3.589-4.147-.684-8.292-1.09-12.434-1.285z" style="fill:#cd9d74;fill-rule:evenodd"/>
  <path d="M1674.685 1651.329c-3.402-1.991-6.82-3.95-10.32-5.709-5.42-2.718-11.22-4.003-16.79-6.168-5.603-2.175-9.202-4.732-15.234-5.18-12.51-.926-25.072.347-37.158 3.99-15.014 4.528-29.599 11.208-42.89 20.492-6.187 4.321-12.221 10.096-17.396 15.856-6.048 6.736-10.083 15.513-17.516 20.586 10.255-18.478 17.76-40.505 32.688-54.86 13.731-13.2 33.468-16.889 50.525-20.36 8.95-1.823 18.812-3.451 28.076-3.208 9.231.243 19.7 5.127 28.547 8.52 9.736 3.73 19.527 7.853 29.192 12.092 12.006 5.266 23.755 10.892 35.994 14.17 11.75 3.148 21.246-.536 30.893-8.186-4.674 5.994-8.305 13.41-14.536 17.332-8.48 5.337-22.312 11.224-32.167 8.156-7-2.177-13.236-7.184-19.748-10.602-4.112-2.159-8.127-4.562-12.16-6.922z" style="fill:#cd9d74;fill-rule:evenodd"/>
  <path d="M1661.3 1658.514a50.445 50.445 0 0 0-5.212-19.234c5.292 4.287 5.938 11.68 5.211 19.234z" style="fill:#5d1407;fill-rule:evenodd"/>
  <path d="M1583.635 1653.106c.147 6.998.278 12.979 2.423 19.598 2.143 6.61 6.095 11.743 10.936 16.03 2.413 2.134 8.41 6.94 11.596 6.181-7.574 1.798-15.28-.779-21.268-6.733-3.845-3.824-6.015-9.167-7.571-14.404-3.596-12.113-2.95-23.533 5.063-32.592.07-.099.069-.101-.01-.01-1.064 2.246-1.115 4.696-1.173 7.253a110.933 110.933 0 0 0 0 4.673zm69.515 21.851c-.927 3.113-3.058 6.406-3.574 9.443 3.392.239 6.404-7.338 7.632-10.297 1.999-4.818 3.146-10.233 2.742-15.652-.66-8.862-6.201-19.742-14.785-20.386 1.478.11 4.272 5.286 5.097 6.59 1.154 1.823 2.171 3.625 2.935 5.726 1.578 4.33 2.1 9.069 1.848 13.716-.203 3.684-.861 7.315-1.877 10.793-.01.023-.014.045-.019.068z" style="fill:#4e2a04;fill-rule:evenodd"/>
  <path d="M1590.08 1635.585c-13.884 4.95-29.388 12.625-40.612 21.724-4.461 3.587-8.845 8.08-12.672 12.284-3.948 4.468-7.429 11.93-12.478 15.29 14.83-9.989 26.237-24.431 42.432-32.684 16.53-8.485 35.168-14.046 54.407-12.706 10.15.707 20.513.945 30.336 4.183 4.774 1.572 8.032 3.896 12.023 6.769 4.89 3.528 11.05 5.603 16.367 8.294 4.723 2.394 9.087 4.497 14.08 6.17 10.16 3.402 19.082 4.54 29.606 2.592 5.72-1.06 11.656-3.45 16.267-7.32 3.173-2.666 5.292-6.775 8.594-9.111a6.82 6.82 0 0 1-1.448 1.158c-8.324 5.114-18.108 7.545-27.894 6.713-4.975-.42-10.306-2.083-15.325-3.073-4.398-.87-8.512-1.388-12.696-3.16-8.45-3.577-15.574-8.392-23.691-12.71-12.002-6.381-24.943-10.416-38.362-10.571-13.614-.158-26.287 1.537-38.935 6.158z" style="fill:#12160f;fill-rule:evenodd"/>
  <path d="M1674.189 1683.17c-9.772 2.998-19.524 6.065-29.204 9.36-17.332 5.898-34.232 8.972-52.19 3.292-12.43-3.934-22.298-10.56-33.992-15.348-13.76-5.636-32.208-2.624-38.85 11.154 15.789-7.052 26.201-11.22 43.688-5.276 14.254 4.799 26.85 13.17 41.506 16.988 11.733 3.034 53.355-4.608 59.573 8.701-3.413-7.283-14.747-11.427-21.227-11.948 11.08-2.456 23.456 1.74 32.995 8.316-6.133-6.143-14.033-11.069-22.7-12.141 12.869-1.2 25.756-.387 37.204 7.333-6.056-7.524-17.282-11.761-26.419-12.115 11.533-2.903 27.393 2.475 37.614 8.64-5.325-6.349-15.578-9.485-23.364-10.686 13.408-.086 24.144 1.052 36.602 6.98-8.1-7.275-18.179-10.786-28.73-9.842 12.826.404 24.478-4.47 37.546-.425-4.118-1.274-7.616-4.55-11.849-5.768-4.456-1.284-9.323-2.002-13.798-.58 8.684-3.011 17.224-8.32 26.532-9.068-7.14-1.467-17.33 2.166-24.275 4.302-8.886 2.734-17.783 5.405-26.662 8.131z" style="fill:#12160f;fill-rule:evenodd"/>
  <path d="M1589.355 1617.77c16.343-4.408 36.24-5.616 50.469 2.2-5.245-3.372-17.405-1.947-23.455-1.667-36.956 1.694-77.868 22.355-89.353 62.521 7.837-27.405 26.735-49.93 52.17-59.746a102.473 102.473 0 0 1 10.169-3.308z" style="fill:#b05837;fill-rule:evenodd"/>
  <path d="M1734.986 1652.188c-13.81 9.714-41.885 11.829-55.908 2.337 14.733 2.715 38.265-1.737 44.55-15.354-16.41 16.454-42.91 9.002-62.486 4.886 10.449 4.963 34.514 1.428 35.414-11.371-8.034 12.548-33.016 10.022-45.855 7.086 11.263.35 22.006-5.12 25.848-14.834-12.157 16.581-33.071 5.865-48.148 11.673 13.108 3.786 25.752 9.314 38.05 15.451 11.343 5.66 22.927 13.268 35.788 13.235 12.412-.034 22.852-6.148 32.747-13.11z" style="fill:#12160f;fill-rule:evenodd"/>
  <path d="M1628.146 1637.669c9.148.483 18.091-2.246 27.262-1.794 8.52.417 16.57-.37 23.253-6.602-4.658 4.345-9.78 7.216-15.506 8.867 4.969 2.432 16.604-3.36 20.184-8.386-4.213 5.28-9.608 9.64-15.448 10.779 6.823-.263 14.281-4.08 19.183-9.818-3.52 5.465-9.463 8.659-14.5 11.113 3.16-.167 5.787 3.634 9.135 3.75 4.035.137 14.62-2.656 16.551-7.922-3.7 5.9-8.247 11.131-14.822 10.301 5.146.592 15.246-2.578 18.4-7.754-4.338 5.217-8.322 7.701-14.349 8.722 5.183 2.136 11.69-1.871 16.357-4.513-4.106 4.418-9.042 5.466-13.878 7.262 7.082 1.102 11.232-2.538 17.301-5.597-4.538 4.937-9.36 6.019-14.883 7.688 5.763 8.366 17.747.364 23.65-2.855.12-.142.114-.146-.012-.011-3.76 4.93-14.572 9.447-19.839 7.654 3.1 3.11 9.95 2.02 13.669 1.518 4.717-.64 8.796-4.48 13.034-5.569-2.933.753-6.473 6.084-9.356 7.738-3.913 2.25-9.5 2.198-13.759.988 10.694 3.48 26.222 6.24 36.53.753-6.876 5.934-15.293 7.367-24.05 6.67-4.847-.385-10.638-1.142-15.071-3.405-8.365-4.269-14.78-11.114-23.221-15.441-6.23-3.194-11.969-7.313-17.935-10.798-5.08-2.967-11.6-3.114-17.21-3.472-3.032-.193-7.884-1.147-10.67.134z" style="fill:#1b1918;fill-rule:evenodd"/>
  <path d="M1576.158 1645.666c8.404-3.745 15.322-10.313 23.73-14.1 7.814-3.517 14.716-7.914 18.192-16.633-2.42 6.079-5.852 11.027-10.323 15.149 5.44-.065 13.537-10.648 14.717-16.85-1.645 6.723-4.721 13.152-9.5 16.855 6.015-3.358 11.162-10.236 13.239-17.693-.95 6.578-4.989 12.195-8.514 16.729 2.767-1.597 6.66.654 9.71-.772 3.676-1.72 12.043-9.1 11.645-14.767-.934 7.053-2.898 13.885-9.128 16.14 4.851-1.817 12.631-9.318 13.37-15.464-1.786 6.727-4.353 10.806-9.348 14.487 5.514-.428 9.73-7.048 12.85-11.58-1.9 5.892-5.902 9.1-9.514 12.947 6.8-2.241 9.05-7.444 13.258-13-2.075 6.562-5.963 9.75-10.242 13.793 8.552 4.964 16.069-7.787 20.061-13.414.052-.182.045-.18-.015 0-1.38 6.202-9.256 15.247-14.703 16.028 4.04 1.408 9.743-2.713 12.876-4.875 3.972-2.736 6.08-8.09 9.442-11.017-1.582 5.32-3.914 8.643-7.603 12.08-3.189 2.968-6.636 3.933-9.948 6.322.295-.212 8.773 3.294 10.174 3.279 3.626-.034 7.09-1.02 10.567-1.733 6.41-1.324 13.125-5.517 17.148-10.834-2.603 2.47-4.228 6.502-6.677 9.363-2.767 3.225-5.976 5.323-9.81 6.918-8.638 3.594-18.196-.422-27.367-2.548-7.108-1.651-14.382-2.868-21.47-2.92-6.878-.051-13.696-1.17-20.457-1.605-5.758-.372-11.664 2.476-16.842 4.716-2.799 1.214-7.536 2.564-9.518 5.003z" style="fill:#1b1918;fill-rule:evenodd"/>
  <path d="M1511.048 1617.898c1.648-11.977 1.459-23.96 4.32-35.75 2.839-11.7 8.29-21.7 14.925-30.658-12.844 17.39-15.737 42.829-18.61 65.92zm7.09-10.762c-1.641-9.32 4.274-24.335 7.417-32.23 4.728-11.875 12.056-22.374 20.074-31.118-8.751 16.182-24.831 30.929-25.002 52.593z" style="fill:#b1b3b4;fill-rule:evenodd"/>
  <path d="M1522.118 1599.59c3.143-23.335 18.253-44.241 32.32-60.585-8.329 12.27-18.286 26.69-22.94 40.457 6.39-14.747 17.162-31.184 28.538-40.342-7.054 13.422-16.745 25.22-23.196 38.865 6.434-18.271 24.172-34.176 37.177-44.917-7.85 14.236-21.802 23.805-29.882 38.3 6.816-12.485 17.919-22.811 28.752-30.014-7.59 8.877-15.495 16.46-22.161 26.527 3.885-4.44 7.285-10.656 12.427-12.992-2.9 3.653-5.315 7.74-7.79 11.782 3.71-6.06 11.23-12.642 16.312-17.231 3.991-3.61 10.027-5.2 13.286-9.652-4.964 3.708-9.767 10.125-13.566 15.47 4.615-4.51 10.534-7.247 16.226-9.52-3.62 1.966-6.562 5.698-9.875 8.24 3.853-3.696 8.912-5.225 13.738-6.728 5.141-1.604 10.88-4.585 16.387-4.118-5.652 2.216-11.067 5.439-16.737 7.76 8.739-4.53 17.842-10.397 27.47-12.29-5.602 3.989-11.44 7.885-17.333 11.328 7.74-5.078 17.262-6.817 26.275-8.14-2.92 3.182-9.201 5.055-13.432 5.886 6.702-1.35 13.218-3.674 19.999-4.61-1.48 1.586-4.66 2.2-6.862 2.58 4.552-1.4 9.16-3.258 13.928-3.651-2.118.696-4.314 1.467-6.183 2.687 4.836-1.245 10.013-1.241 14.913-2.231-1.564.45-3.274.834-4.657 1.686 4.293.373 9.022-.947 13.245-1.63-1.818.78-3.823.951-5.746 1.192 4.302.129 8.834-1.893 13.121-.161-.812.197-1.97.864-2.618 1.029 2.71.274 5.316-.556 8.027.082-.927.259-1.857 1.072-2.745 1.387 6.835 3.05 15.378-2.906 22.641-1.914-1.775 1.332-4.65 1.936-5.81 3.814 3.535-1.219 8.304-1.633 11.993-.958-1.26.427-2.504 1.229-3.676 1.768 2.925-.06 5.886-.89 8.764-.271-.767.327-1.43 1.128-2.153 1.525 2.28 1.552 5.065.6 7.545 1.635-.752.342-1.342 1.156-1.729 1.419 2.179.06 4.773-.075 5.367 2.578 4.526 1.73 8.078 2.649 12.661 4.382-.01.28-.012.563-.018.843 3.194 2.274 6.404 2.45 9.287 4.344 2.108 1.383 3.933 2.633 6.03 3.985 3.63 2.341 7.574 3.995 11.119 6.537 2.315 1.655 4.466 4.625 7.072 5.336-1.66.665-3.391 1.14-5.037 1.844 2.406-.55 5.392-.523 7.808.416-1.772.483-3.589 1.609-5.035 2.64 2.94-.339 6.177-.889 9.19-.013-2.116.9-4.456 1.24-6.539 2.212 2.683.037 5.449-.318 8.179.524a10.744 10.744 0 0 1-4.836 1.397c2.32.128 4.724-.115 7.038.669-1.711.477-3.407 1.164-5.194 1.41 2.856.605 6.486-.65 8.906 1.124-1.553.507-3.38.908-4.875 1.838 1.99.77 4.09.596 6.074 1.452-1.14.366-2.464 1.054-3.321 1.739 2.037.457 4.159.228 6.248.898-.909.177-1.865.937-2.436 1.14 1.76.465 3.61.522 5.415 1.157-2.573-.906-5.194 1.562-7.765-.185 2.377.313 4.776.717 7.165 1.032-5.432-1.593-10.997-3.833-16.479-3.717 3.394-.75 7.659-.334 11.191.08-2.73-.322-5.7-.794-8.436-1.386 2.617-.53 5.526-.483 8.285-.337-2.56-1.596-6.482.587-9.521-.676 2.284-.797 4.832-.737 7.074-1.404-3.626-.187-7.705.93-11.302-.22 2.587-.145 5.232-1.132 7.557-1.9-4.059-.908-8.848.051-13.065-.201 2.851-.78 5.538-2.025 8.518-2.289-4.468-.376-9.043 1.24-13.535-.226 2.448-.643 4.766-1.713 7.14-2.58-3.75-.306-7.963.893-11.612-.378 3.005-1.169 6.297-1.6 9.375-2.315-4.503-.888-9.34.703-13.881-.585 2.19-1.725 5.439-2.393 7.784-3.277-4.072-.708-8.845.01-13.085-.21 2.778-.98 5.87-1.338 8.445-2.755-3.28-.239-6.762.054-10.002.468 1.844-.318 3.756-.583 5.585-.823-3.227.134-7.497 1.37-10.596-.01 2.128-1.572 4.662-2.627 7.047-3.744-3.698.539-7.089 2.987-10.923 3.001 2.898-1.459 5.724-3.412 8.518-4.721-4.82 1.516-9.875 4.434-14.892 4.768 3.278-3.106 7.525-4.044 10.834-6.826-4.569 1.86-11.41 5.59-16.286 4.53 3.302-2.682 7.688-4.406 10.966-6.723-5.325.629-10.39 3.282-15.849 4.129 3.758-2.05 8.615-3.597 11.571-6.73-6.443-.16-11.537 1.242-18.005-1.442 1.228-.341 2.431-.956 3.61-1.463-2.358-.894-9.125-1.558-10.917.027a1.41 1.41 0 0 1 .844-.363c-4.573.24-9.262 2-13.82 2.717 2.91-1.976 6.413-2.946 9.527-4.55-7.244 1.106-14.707 6.397-21.892 6.375 3.822-2.414 7.59-5.198 11.549-7.306-2.491.726-5.215 2.03-7.528 2.337.785-.637 1.92-1.785 2.984-2.37-4.412 2.371-8.83 6.514-13.798 7.94 2.453-4.01 7.013-6.194 10.537-8.807-6.472 2.251-11.307 8.84-17.956 10.66 4.009-4.77 9.248-8.055 14.366-11.15-5.762 3.187-11.364 6.96-17.07 10.331 3.843-4.078 8.956-7.109 12.766-11.454-6.741 2.599-13.11 7.335-19.014 11.722 3.163-4.758 8.051-9.94 12.767-12.345-7.382 4.549-14.662 13.494-22.53 16.159 4.08-7.613 11.213-11.825 16.915-17.63-6.764 5.18-14.104 10.587-21.213 15.05 3.187-7.06 12.17-12.128 18.198-15.91-8.222 4.183-15.74 9.935-23.043 15.827 4.758-5.764 11.173-10.674 16.9-15.09-6.954 1.536-12.013 9.173-18.107 12.735 4.243-3.32 8.852-8.386 13.8-10.58-6.778 3.526-12.506 9.22-18.672 13.778 3.983-6.3 8.889-11.336 14.765-14.915-8.475 3.778-16.24 10.78-23.616 16.824 6.131-4.455 10.452-13.839 17.262-16.76-6.88.741-12.079 6.013-17.745 9.689-4.313 2.8-13.08 5.923-15.647 10.85 4.627-8.878 14.033-13.205 19.815-21.03-4.845.502-10.31 7.586-13.986 10.85-5.557 4.935-10.79 10.452-16.372 15.202 4.984-7.822 11.43-14.016 17.042-20.976-7.778 3.69-13.486 12.12-21.563 15.57 4.202-5.934 10.94-9.912 14.203-16.562-10.466 4.216-18.212 16.77-28.47 22.133 4.973-8.275 12.483-14.437 17.11-22.826-11.51 3.935-18.272 21.1-27.664 28.457 4.818-11.193 14.906-18.882 21.289-28.778-11.524 11.392-19.334 27.807-31.095 38.74 6.502-9.946 10.144-22.685 17.147-32.117-9.547 10.14-15.663 26.895-26.78 34.645 4.244-11.256 12.292-20.267 18.599-29.492-8.64 9.139-15.296 21.578-22.378 32.448 4.255-7.991 6.307-18.37 11.034-25.807-7.263 9.937-11.968 23.119-18.388 33.933 3.585-10.33 6.23-21.558 10.863-31.253-5.765 7.764-7.543 18.375-11.919 27.193 2.78-5.886 5.512-14.544 6.409-21.272-5.538 9.374-6.787 22.034-11.468 32.139 4.126-8.785 4.216-20.31 8.857-29.037z" style="fill:#1b1918;fill-rule:evenodd"/>
  <path d="M1535.435 1595.052c-.272.01-.867 1.435-.657.595 1.461-9.962 8.887-20.715 13.7-28.362 5.432-8.62 12.07-17.591 19.715-23.236-6.323 4.457-11.253 14.772-15.853 21.45-3.672 5.336-7.803 10.777-10.223 17.114 7.63-14.617 20.458-28.603 32.738-37.384-7.563 8.71-13.786 19.151-21.14 28.022 6.59-10.053 16.035-16.703 22.794-26.276-5.774 8.597-13.335 15.413-18.448 24.73 2.039-2.562 3.518-5.753 5.808-8.028-5.047 7.07-10.675 17.307-13.437 26.104 9.477-13.941 20.487-25.902 31.155-38.434-6.971 7.745-15.906 18.042-20.48 28.043 10.568-11.959 20.52-23.432 32.677-33.28-9.008 9.629-18.43 20.479-25.548 32.141 8.275-8.788 16.6-18.357 26.29-25.335-5.783 8.696-14.943 14.768-19.908 24.432 11.052-10.428 23-26.108 37.368-30.807-8.34 11.811-22.148 20.01-32.263 29.702-5.43 5.207-10.407 14.572-16.423 18.167 4.074-6.25 7.838-12.892 12.345-18.71-5.736 3.857-9.635 12.167-15.509 16.332 3.043-6.442 7.884-11.586 11.725-17.154-4.016 5.488-8.842 12.72-14.064 16.413 3.32-6.607 7.118-12.982 10.75-19.346-8.738 7.007-14.302 20.179-22.03 28.775.803-3.873 2.477-7.438 4.422-10.453-2.975 3.695-6.766 11.87-10.674 12.918.937-14.212 10.585-23.534 15.713-35.052-8.072 8.224-15.936 21.837-21.651 32.671 3.974-10.54 10.677-19.73 16.01-29.052-6.92 5.636-12.742 18.104-17.673 26.447 2.273-6.916 7.206-12.646 10.788-18.536-3.233 4.564-6.238 9.432-9.044 14.415zm-21.777 18.358c3.386-9.2-.042-29.112-3.084-39.235.977 9.431 2.915 19.203 3.739 28.418-.858-11.496 1.72-26.76 2.978-36.889-1.478 12.129-1.886 24.198-2.232 36.445 1.644-13.115 2.323-29.442 7.806-40.577-3.05 12.01-4.708 24.923-6.295 37.689.876-13.73 7.808-36.273 16.552-44.78-7.6 15.048-13.107 31.258-15.369 49.126 1.587-14.947 10.494-32.177 18.47-42.847-9.167 18.596-18.837 42-19.448 64.839-1.295-5.175-.153-11.039-.338-16.264-.44 2.884.3 9.343-.601 13.284-1.275-5.908.24-12.291-1.097-18.12a371.83 371.83 0 0 1-.838 6.956z" style="fill:#b1b3b4;fill-rule:evenodd"/>
  <path d="M1532.115 1596.783c.853-12.63 13.485-22.647 19.343-32.063-5.14 6.453-8.363 15.418-11.967 23.21 4.353-6.635 8.95-16.928 15.265-20.826-3.58 6.496-7.902 12.53-10.967 19.478 6.661-8.51 12.65-17.244 20.16-24.87-3.833 6.753-10.627 12.307-12.791 20.209 6.047-7.982 13.117-17.808 21.667-21.99-3.21 6.03-8.455 10.515-12.253 16.027 7.078-5.02 12.103-13.674 20.003-17.517-2.334 2.372-4.748 5.14-7.097 7.702 3.441-2.268 6.271-5.852 9.452-8.332-14.406 12.003-30.025 28.048-40.178 45.304 4.323-6.81 9.191-13.738 13.028-20.906-6.473 3.465-11.755 13.318-16.843 19.129 2.239-5.852 5.856-12.306 9.112-17.317-4.824 4.32-7.866 10.957-12.364 15.682 2.31-3.839 3.56-8.504 6.036-12.176-4.516 5.24-7.37 12.243-11.316 18.066.503-4.81 3.661-8.013 4.976-12.44-5.553 4.294-9.376 13.77-13.403 20.062 2.34-10.53 11.072-22.637 16.405-31.358-3.25 3.749-6.05 8.778-7.851 13.789z" style="fill:#b1b3b4;fill-rule:evenodd"/>
  <path d="M1523.034 1592.316c-3.71 9.151-3.842 21.425-5.284 31.615 1.59-3.443 1.833-8.207 2.95-12.023 1.319-4.51 3.374-8.556 4.643-13.056-2.187 6.408-3.478 13.144-5.055 19.753 2.94-5.227 4.346-12.818 6.722-18.743-1.109 6.384-3.939 12.006-4.579 18.627 1.631-7.36 3.653-14.713 7.021-21.046-2.493 5.891-4.436 12.738-5.05 19.538.785-7.104 4.476-14.278 7.829-19.807-2.163 6.497-5.026 13.41-5.742 20.56 3.132-6.88 5.163-14.359 8.702-21.104-1.724 5.796-3.643 11.507-5.47 17.211 2.942-5.377 5.186-12.386 8.008-18.212-1.444 7.335-6.857 15.407-6.548 22.794 3.448-8.333 5.134-17.39 9.922-24.904-3.043 8.14-7.591 17.42-8.241 26.603 1.74-11.346 8.172-22.93 14.48-30.975-1.941 5.673-5.627 10.74-6.568 16.993 3.169-5.956 5.536-12.697 9.841-17.599-1.993 6.002-4.58 11.767-6.654 17.695 4.392-4.671 5.303-16.275 11.975-18.342-1.375 4.455-5.84 9.916-5.376 14.458 2.425-4.698 5.011-11.807 9.327-14.219-1.25 4.869-4.321 8.845-5.204 13.846 4.915-4.86 6.541-14.21 12.422-18.573-1.926 4.197-4.738 7.94-5.912 12.629 4.104-5.69 7.407-13.73 13.201-17.24-1.943 4.515-4.985 8.331-6.925 12.85 4.81-4.04 6.817-13.778 12.948-15.864-2.401 3.77-6.554 7.518-7.63 12.151 5.287-3.69 7.79-12.404 13.727-14.941-.908 3.48-3.694 5.917-5.025 9.225 4.103-3.699 7.587-8.73 11.969-11.974-1.654 3.862-4.42 6.836-6.046 10.668 3.644-1.877 6.883-7.85 10.18-10.959-1.036 1.331-2.533 2.566-3.555 3.935 3.37-3.262 7.015-6.784 9.655-10.912-2.586 2.077-4.969 4.699-7.703 6.533 2.718-2.077 5.143-5.565 6.365-9.236-3.786 1.316-6.82 4.64-10.52 6.205.816-1.77 1.637-3.582 2-5.558-4.391 1.559-7.724 5.547-11.993 7.276.805-1.905 1.822-3.699 2.05-5.883-4.559 3.567-8.227 8.617-13.264 11.465 1.67-3.297 3.774-6.212 5.32-9.609-3.797 5.377-8.298 12.062-13.519 15.237 2.64-4.621 5.88-9.197 9.005-13.349-4.038 5.807-9.93 13.71-15.753 16.871 2.38-6.287 7.209-11.143 9.124-17.812-7.974 5.354-12.423 16.754-20.056 22.656.749-6.904 5.52-14.424 8.112-20.606-4.712 7.482-9.867 15.258-15.224 22.068 1.042-5.121 3.483-10.12 4.04-15.388-3.99 4.933-6.53 11.708-10.834 16.335 1.914-5.7 4.4-11.295 6.584-16.876-2.664 4.185-5.044 8.684-7.739 12.864 2.76-4.556 4.856-9.81 7.025-14.789-4.676 3.956-6.765 11.457-10.326 16.647 1.445-3.624 2.914-7.243 4.152-11-3.636 4.573-5.47 11.487-8.858 16.528 2.49-2.676 4.86-7.376 5.778-11.39-2.068 5.186-5.5 9.961-8.103 14.803z" style="fill:#c4c6c8;fill-rule:evenodd"/>
  <path d="M1633.498 1662.353c1.221-4.065 1.171-8.694-.785-13.398-5.517-13.27-25.253-14.306-29.886-.1-2.467 7.565-1.843 17.918 4.062 23.31 9.497 8.676 23.147 1.693 26.61-9.812z" style="fill:#12160f;fill-rule:evenodd"/>
  <path d="M1633.766 1661.292c1.018-6.431 9.713-12.1 13.496-5.302 5.057 9.089-8.134 18.061-12.704 9.947-.834-1.481-1.04-3.084-.792-4.645zm-6.826 13.354c.653-2.592 4.984-4.641 6.816-1.638 4.434 7.264-6.37 7.093-6.884 2.575a2.597 2.597 0 0 1 .068-.937z" style="fill:#fff;fill-rule:evenodd"/>
  <path d="M470.601 1954.848c-22.13-36.263-50.111-108.812-66.282-150.714-46.476-120.36-75.247-210.75-91.337-342.43-6.07-49.634-15.267-145.996-38.595-181.07-66.956 21.661-37.158 85.216-21.588 148.247 31.732 128.508 130.762 512.916 182.903 614.534 8.985 17.488 9.398 23.464-1.867 41.728-23.344-39.742-49.234-106.375-67.728-152.505-20.932-52.235-40.636-108.506-57.848-166.047-19.29-64.458-29.742-115.227-38.22-186.181-6-50.18-15.399-148.886-38.957-184.285-70.95 20.907-33.207 98.148-16.716 168.634 8.959 38.262 19.61 76.725 29.222 115 20.293 80.9 104.907 381.732 132.864 444.537 19.29 43.343 75.566 153.532 121.68 166.05 27.666-38.092 9.722-96.886 6.176-140.6 18.49 9.185 17.104 19.666 37.128 25.118 20.89-28.745 15.677-77.536 9.838-114.2-7.067-44.328-12.118-72.604-6.718-119.468 9.079-78.895 23.396-155.501 39.674-231.413 28.877-134.624 97.857-273.37 158.314-382.997 33.211-60.23 73.648-106.826 111.535-155.557l63.593-69.859c23.903-23.847 46.37-44.647 69.408-67.723 86.575-86.79 108.824-120.828 222.24-181.847 16.132-8.678 28.25-16.252 41.34-27.249 21.106-17.731 31.225-18.494 29.52-37.01-14.812 8.372-34.853 22.983-50.555 34.035-78.63 55.397-286.127 194.408-344.589 261.56-8.772 10.076-5.132 6.918-16.49 11.862 13.302-25.77 78.523-95.522 101.442-118.146 38.126-37.637 77.122-71.351 110.747-109.465 24.197-27.41 84.401-80.365 118.12-101.843 21.052-13.414 47.674-24.704 69.83-38.531l47.541-35.394c8.921-7.374 8.452-6.44 7.254-19.56-44.677 25.16-302.366 211.111-329.018 235.47-31.102 28.434-96.187 84.296-120.49 113.957-36.226 44.209-81.005 94.738-111.536 155.664-59.834 119.412-120.704 234.012-169.754 364.251-24.035 63.82-51.14 128.747-70.66 196.326-15.596 54.007-42.18 191.671-51.42 217.121z" style="fill:#1b1918;fill-rule:evenodd"/>
  <path d="M949.895 2646.223c11.492-30.996-26.05-108.028-38.117-137.063-35.113-84.59-65.256-407.05-58.94-491.477 9.254 33.783 14.974 96.656 22.6 134.105 9.198 45.112 20.262 87.19 32.504 130.596 11.448 40.676 26.997 83.925 37.938 124.575 5.388 19.998 12.536 40.956 18.375 60.737 3.09 10.439 6.104 21.678 8.81 30.437 1.893 6.147 3.359 12.135 4.949 17.118 3.132 9.786 1.811 7.63 7.919 14.398 9.705-14.33 2.958-24.7-1.803-46.033-10.703-47.955-35.22-86.405-49.805-141.598-16.17-61.164-24.678-157.087-31.357-224.081-18.597-186.817-18.597-289.432 20.983-465.08 15.2-67.405 30.65-135.666 55.968-197.017 16.704-40.492 38.983-92.483 59.778-131.304 8.176-15.255 15.933-26.277 23.32-41.77 18.195-38.119 69.845-127.239 96.267-156.41 37.13-41.008 112.137-90.203 111.574-144.705-40.419-1.743-35.3-3.465-54.327 14.279-21.303 19.866-137.275 120.188-146.341 135.374l-70.805 145.583c-29.627 66.54-50.078 133.423-74.313 207.135-24.278 73.832-43.356 145.664-62.409 222.773-79.227 320.512-64.07 420.502 16.282 723.56l61.364 205.378c6.44 16.359-1.572 4.637 9.586 10.49zm628.918-1181.624c.17 8.733-.72 15.596-1.923 20.45l2.532 84.577c-4.211 10.426 4.296-1.108-1.517 5.132 7.506 4.454 4.837 8.414 5.413 18.852l9.773 1.215-.08-24.64-3.402-92.215-1.667-16.065c-7.13-114.468-7.6-189.327-25.957-303.697-4.399-27.424-16.942-67.583-16.849-93.259 28.25 53.087 92.415 319.723 101.694 393.768l2.28 9.854 3.598 33.997c6.666 5.387 3.039 69.684-.026 80.472l-2.6 47.311c.043.733.281 1.68.388 2.442.05.401 1.824 7.2 2.144 8.998 7.612 43.795-2.639 42.448 16.401 51.489l-3.27-79.978c1.936-11.704 2.017-12.412 9.617-19.973-12.242-15.413-11.376-5.865-12.706-24.385l.183-25.77-3.397-71.444 1.014-10.72c-4.028-10.677-17.428-213.174-47.955-320.644-27.01-95.096-64.262-177.35-114.749-252.541-18.012-.87-34.848 5.132-53.193 8.571-.026 11.423 38.727 103.43 46.301 127.771 29.623 95.203 97.84 359.04 87.952 440.432zm3564.402 1017.317c5.61-34.457 190.028-99.895 249.94-61.39-.349 16.131-9.547 16.282-23.013 23.056-11.198 5.634-88.111 30.874-99.127 33.622l7.012 15.857c13.458-2.32 30.76-9.935 44.409-14.503 19.768-6.627 69.175-21.098 81.708-34.467 12.137-12.952 9.702-30.676-4.366-38.408-72.336-39.745-243.17 22.715-269.061 55.29-11.38 14.324-9.91 29.051 2.606 39.35 19.423 15.99 114.861 23.506 141.868 27.442 28.152 4.102 77.97 6.352 73.349 41.254-15.503 55.53-289.178 97.707-301.365 58.17 1.345-23.688 47.17-38.236 71.281-44.474 52.93-13.688 54.208-9.423 104.275-12.359l-.52-16.08c-32.015-4.548-87.709 4.389-116.678 11.09-29.842 6.913-74.035 21.377-76.61 52.812-3.35 40.967 53.84 41.138 89.203 41.165 38.672.032 81.007-5.825 116.394-14.134 29.035-6.809 70.925-22.46 94.07-35.398 35.331-19.734 55.907-48.614 22.955-77.475-18.318-16.049-73.262-21.462-103.748-25.999-18.12-2.698-37.377-5.882-55.842-8.903-13.788-2.252-40.372-4.545-48.74-15.518zm-2859.282-69.184c30.686-4.556 64.852 36.5 23.153 63.325-26.767 17.21-70.595 15.379-106.626 19.206l.973 16.273c29.149-.511 63.655-8.243 90.503-1.833 55.644 13.285 81.429 75.512-30.75 112.535-37.864 12.501-88.5 11.691-131.398 11.691l.604 17.252c52.747 2.097 107.871-.353 153.335-17.616 32.46-12.316 76.19-36.03 76.19-75.71 0-35.915-21.85-47.912-51.71-57.625 7.336-8.504 11.923-5.312 25.635-19.792 7.483-7.897 12.683-17.03 12.675-32.024-.05-86.89-141.57-41.312-196.71-35.205l3.192 17.55 56.675-6.534c-19.323 36.756-41.238 76.187-62.856 112.64-8.061 13.59-59.397 104.194-61.592 112.617l18.423 6.379 131.124-236.506zm1062.737 71.922-17.503-4.704c-6.972 7.046-97.657 177.338-102.996 192.32 30.167-9.208 103.516-55.503 131.744-76.725l38.838-28.837c-4.06 9.802-11.272 18.845-17.115 28.22l-82.674 129.473c-6.6 10.873-29.489 43.697-32.639 53.333l20.452 6.207c4.811-10.066 126.57-202.247 137.017-218.436l45.395-72.468-14.48-8.663c-10.33 4.77-14.753 12.754-20.867 19.916-6.698 7.848-12.44 13.203-19.695 20.404-12.556 12.451-27.632 24.514-42.905 37.38-18.43 15.518-72.278 54.973-97.18 64.422zm2108.942 151.132c7.55-14.669 19.449-32.815 28.468-47.08 17.5-27.664 47.028-54.777 73.217-74.02 51.85-38.102 77.517-17.202 31.032 33.103-40.967 44.324-73.004 65.884-132.717 87.997zm82.336-151.702-18.481-6.378-153.773 265.516c5.017 4.39 8.325 6.236 18.21 6.666 12.086-17.302 61.634-102.674 69.819-109.11 3.086 4.16 5.568 8.258 9.167 12.046 11.09-5.777 29.81-12.187 42.83-17.74 13.747-5.866 29.226-15.033 40.2-22.45 29.396-19.87 80.494-64.062 85.034-100.066 2.308-18.336-8.913-32.32-23.746-34.343-20-2.722-51.842 14.044-67.651 25.348-7.212 5.149-10.784 9.019-18.07 12.02zM3130.6 2462.838c2.858-8.491 16.356-24.63 22.468-32.013 8.591-10.388 15.653-20.314 23.45-29.307l-17.088-8.333c-11.477 11.773-20.454 23.39-30.42 35.989-36.619 46.32-10.702 34.917-81.123 42.164l1.32 15.04c7.227 3.243 6.963 1.412 18.573.249 6.708-.67 14.001-1.116 20.75-1.543l-46.214 91.964c-10.617 22.317-32.46 76.28-36.996 99.655 15.906-9.713 26.806-20.447 42.377-31.718 43.283-31.328 90.271-62.36 143.499-78.475l-7.508-15.297c-38.671 3.442-117.328 60.215-137.856 69.498 13.134-47.21 47.229-96.172 69.406-138.756l126.47-12.145-2.128-17.647zm-298.623 163.278c8.159-20.66 70.956-124.664 75.016-137.864l-20.04-5.785c-8.104 9.077-20.067 34.522-26.915 46.229-8.879 15.191-17.937 31.958-26.207 47.585-8.636 16.32-49.819 85.42-52.03 95.156 71.13-26.418 138.7-89.01 148.426-93.02l-40.594 79.48 19.24 5.307 91.554-174.417-17.434-6.542c-6.13 4.86-35.364 51.484-68.823 80.52-47.112 40.876-35.089 29.422-82.193 63.35zm2997.42-131.562c-5.999 12.814-25.173 36.883-34.638 49.81-5.785 7.915-11.974 16.725-17.772 24.673-16.486 22.599-42.807 42.417-68.772 56.214-86.884 46.147-61.708-7.542-28.747-39.846 44.975-44.084 100.99-65.272 155.877-94.012-3.695-7.926-5.917-10.717-11.461-14.471-14.39 4.653-33.654 16.503-48.176 23.754-15.075 7.534-31.89 15.076-45.58 23.707-32.243 20.32-54.512 33.968-78.134 60.289-34.284 38.21-27.748 80.907 21.881 73.062 47.31-7.476 77.633-39.078 91.907-46.098-2.303 9.43-8.88 23.77-12.683 34.24-3.036 8.333-1.303 6.545-1.163 9.365l19.119 3.16c20.454-73.671 66.715-130.908 77.277-156.395zm-3055.301 0c-5.998 12.814-25.173 36.883-34.638 49.81-27.658 37.791-39.447 55.869-86.544 80.886-87.815 46.641-60.702-8.525-28.747-39.845 45.142-44.248 101.115-65.222 156.58-94.555l-12.164-13.928c-14.611 4.72-33.802 16.576-48.176 23.754-45.661 22.815-90.083 46.527-123.714 83.996-13.582 15.13-36.091 54.2-7.832 70.397 19.853 11.385 62.684-6.006 80.208-15.85 8.17-4.588 15.39-9.125 21.94-13.755 7.187-5.075 12.97-10.628 19.472-13.828-2.393 9.784-13.49 34.72-14.29 39.052-.503 2.746.388 3.416.444 4.553l19.12 3.16c20.453-73.671 66.706-130.908 77.276-156.395zm1332.292.446-58.994 75.314c-26.395 36.403-114.2 88.427-125.06 68.87-10.419-28.284 54.747-76.921 73.278-89.29 12.7-8.483 94.935-54.159 109.755-56.403 1.087-9.201-3.59-6.205-6.66-16.561-12.386 1.577-82.846 38.434-95.883 46.585-32.031 20.035-56.635 35.627-79.49 61.157-13.614 15.205-36.091 54.174-7.831 70.397 37.484 21.518 116.652-40.993 121.603-43.417-1.899 7.911-5.133 14.786-8.227 22.82-4.413 11.454-5.99 11.808-5.611 20.787l19.135 3.142c20.734-74.267 66.454-130.43 77.18-156.19zm768.847-35.733c-27.452 6.987-98.606 49.347-123.112 69.8-10.71 8.946-23.514 18.996-36.174 26.601l40.11-73.647-19.49-5.716-92.88 168.648c1.296 1.031 1.731 1.765 4.422 3.144 2.393 1.238 2.377.916 5.091 1.913 2.912 1.066 6.352 2.22 8.433 2.989 20.199-24.73 36.997-56.826 72.476-86.001 20.28-16.674 69.564-57.567 95.11-64.903l-83.674 154.739 19.108 5.34zM3844.1 2561.561c-5.692 13.538-28.927 43.037-39.135 52.302-16.345 14.835-33.557 24.026-61.294 28.104-83.096 12.218-67.271-52.378-41.42-97.428 29.916-52.146 87.435-109.119 145.893-124.374 51.634-13.466 65.578 2.59 54.438-24.778-51.948 3.878-85.198 16.675-125.455 43.151-30.322 19.935-37.402 30.151-60.587 51.048-19.182 17.287-56.303 74.698-56.263 110.697.1 84.935 109.185 63.547 153.59 29.199 25.258-19.54 31.478-38.714 50.242-59.646-5.677-4.11-12.087-6.716-20.009-8.275zm485.023 13.87c9.818-27.088 84.2-93.402 99.777-76.61 6.693 7.229-8.027 28.184-10.807 31.336-15.72 17.798-65.348 39.036-88.97 45.274zm80.125 25.74c-34.424 7.938-5.866 1-40.059 25.209-13.094 9.266-29.48 20.05-50.834 16.402-6.147-15.577.535-51.906 9.15-64.834.388.338 1.048.28 1.195.973l7.228 12.451c36.348-6.626 122.488-42.583 106.57-94.985-2.21-7.278-3.582-9.686-9.126-13.152-34.884-21.824-109.647 52.501-127.12 91.204-6.917 15.306-20.019 56.784-9.845 72.56 22.401 34.737 111.667-12.78 112.841-45.827zm-1953.968-25.74c6.575-18.127 29.562-37.65 40.702-48.954 43.525-44.192 82.74-35.215 48.276 3.672-15.783 17.814-65.33 39.044-88.979 45.282zm80.14 25.74c-12.268 2.89-14.967-.213-22.187 9.466-9.923 13.308-42.533 36.553-68.711 32.16-6.115-15.642.501-51.879 9.159-64.85.387.338 1.047.288 1.187.982.14.694.93.807 1.113 1.063l6.122 11.37c37.516-6.798 104.268-40.99 108.444-73.606 8.035-62.797-58.179-38.062-100.324 5.263-9.515 9.787-30.513 35.258-37.806 51.42-6.906 15.316-20.009 56.81-9.845 72.569 22.396 34.728 111.712-12.807 112.849-45.836zm1692.975-116.106-19.53-5.394c-9.39 20.272-85.727 157.418-89.011 170.537l17.814 6.362c39.819-48.927 40.734-97.881 112.584-140.225 18.167-10.71 46.823-22.68 53.853-26.922l-7.597-14.226c-12.148 1.957-33.557 13.187-43.813 18.921l-40.323 23.638zm-806.8-187.515 34.518-2.064.05-974.553-34.555.013zm1709.856-444.796-29.724 16.11-.255-531.178-34.836.932.03 955.953 34.768 1.396.038-387.288 29.808-13.877.213 363.733 34.807 1.213.106-385.4 340.8-181.003.586 590.379 34.556-.014-.017-606.586c8.865-7.717 17.02-14.702 30.314-18.897-.055 47.837-3.858 556.652 2.102 589.477h32.454l-.042-606.744c12.294-10.73 16.14-2.37 11.78-49.582l-11.355 4.514c-2.82-80.666-.437-203.375-.425-288.466h-34.526v308.41l-29.583 14.863-.757-286.44-34.488-.044-.094 306.138-169.295 90.122c-27.89 15.554-150.254 82.62-172.116 91.468V1301.01l-34.837.587zm-2255.752 26.24c4.59-25.163 128.494-383.111 134.446-391.47l87.885 275.932c-48.9 29.46-139.223 70.389-196.955 100.3-15.077 7.81-10.3 10.086-25.376 15.238zm251.19-131.346c-31.067-91.241-57.332-187.886-86.795-278.991-5.399-16.66-13.715-31.894-8.636-50.616 4.033-14.876 9.886-33.28 18.54-44.523l112.928 355.99zm-118.514-381.034-11.18-35.399-27.583-.638-328.487 965.19c51.12 1.17 33.475 10.86 55.473-49.352 7.491-20.492 12.481-35.862 19.318-56.311l114.647-335.554c25.908-74.953 49.364-148.71 75.765-223.238 13.358-37.708 25.214-73.12 37.725-109.828 9.05-26.601 26.784-92.123 39.56-111.483 13.463 20.934-13.988 77.272-22.824 103.03l-126.673 370.31c-3.604 10.742-7.905 18.39-10.38 25.338-2.991 8.342-4.297 18.892-7.611 28.702-12.745 37.602-24.444 69.801-36.938 107.127-23.377 69.817-54.33 146.272-72.545 215.546 40.584.557 36.874 3.501 43.034-14.596 2.046-6.028 4.152-12.962 6.173-19.003l91.824-268.331c13.681-40.971 15.944-31.523 51.538-49.445 23.113-11.644 43.91-24.577 68.031-36.139 32.455-15.557 115.635-63.178 140.53-71.311l151.794 487.42 37.006.933-156.8-499.929c.799-12.639 22.941-21.287 32.828-24.52 6.81 34.181 25.57 86.277 36.938 120.94l96.32 307.09c21.888 67.784 7.599 59.744 55.58 60.718l-156.677-500.047c-.426-9.206 14.54-13.69-7.628-35.926-8.831-8.861-7.292-11.788-11.12-24.112-5.935-19.118-12.269-39.29-18.033-57.843-33.425-107.727-76.216-236.17-105.782-340.808l-27.784-.6c-3.884 16.578-18.403 62.101-26.039 72.069zm714.418 881.571-.183-615.529 13.808-13.056 16.196 14.826.357 5.815.017 583.487v6.509c-9.142 7.623-17.101 13.158-30.195 17.948zm65.747-40.559c-2.902-33.65-1.09-610.777-1.05-610.87 5.92-14.558 98.306-93.794 123.788-116.737 8.98-8.091 10.244-9.831 19.241-16.74 13.265-10.162 24.776-20.743 37.64-30.71 53.053-41.09 93.675-61.807 164.425-61.807 119.595.017 118.068 130.136 98.214 231.022-26.252 133.421-88.353 251.927-170.133 352.081l-61.02 68.619c-8.092 9.49-14.814 13.869-23.913 22.755-14.464 14.145-30.11 28.703-42.953 43.58-21.624 25.051-114.035 100.923-144.24 118.807zm376.873-871.99c145.14-10.95 152.858 96.682 133.127 214.546-9.554 57.017-56.924 207.034-97.882 259.125l-3.79 4.097c5.308-18.348 14.97-38.534 22.5-57.613 7.729-19.599 14.106-40.69 20.997-61.834 25.414-77.884 42.205-205.383 13.784-283.3-17.778-48.702-39.09-57.044-88.736-75.022zm-377.06 180.602-.902-215.24-34.518-.013v247.627l-29.128 29.821-1.17-240.747h-34.504v248.545c.187 56.75-12.814 26.026-24.989 62.658l25.763 22.98-.774 609.489c3.9 10.805 7.215 12.92 15.838 18.203 56.523-22.917 184.21-104.974 228.559-142.75l120.977-105.812c12.537-12.613 24.074-23.032 35.887-36.113l70.95-80.42c62.603-82.856 94.207-127.193 134.327-243.823 26.89-78.16 45.693-165.901 36.95-256.61-16.194-168.029-160.301-155.867-274.32-99.704-32.88 16.195-66.984 35.5-98.188 53.227-55.299 31.43-68.78 47.57-109.972 77.293-8.853 6.377-13.268 11.392-21.679 17.897zm-1427.657 437.96-65.292-151.608c-45.468-109.913-76.22-220.843-91.467-340.919-5.628-44.404-17.101-150.667-37.925-181.07-22.526 6.92-41.116 23.43-41.073 49.882.077 49.063 79.687 325.23 98.171 389.382 17.846 61.927 35.994 125.61 53.198 188.056 11.656 42.299 31.178 93.594 51.32 132.366 4.378 8.44 7.36 11.244 6.522 20.28-.982 10.63-6.108 18.19-10.137 23.393-7.334-20.824-23.236-52.198-33.735-74.408-60.314-127.593-110.84-288.636-129.069-429.391-5.892-45.439-17.229-153.327-38.414-184.317-49.952 15.425-44.48 56.872-30.991 105.986 11.418 41.566 19.735 83.376 30.353 124.453 23.257 89.987 110.908 410.559 139.606 480.058 21.224 51.402 77.446 163.68 127.886 181.522 31.14-67.568 2.331-106.714 5.552-144.746 1.676 3.463 25.24 25.137 37.682 29.503 31.919-69.406-.2-121.234-.331-201.02-.081-55.775 19.692-150.811 30.323-207.122 31.68-167.854 121.245-381.98 213.588-507.058 28.333-38.372 47.906-64.867 78.042-98.36l58.149-60.752c11.311-11.273 18.428-20.254 29.697-31.553 42.635-42.762 141.312-144.103 188.07-175.77 33.679-22.794 84.549-44.592 111.681-68.355 25.146-22.023 27.66-12.643 28.78-34.05-17.855 7.78-40.755 27.052-57.418 37.866l-165.807 115.073c-80.636 60.195-91.973 72.388-155.457 125.449-18.492 15.476-32.573 31.642-49.722 46.242 16.698-25.563 23.3-29.685 35.581-45.8 37.709-49.462 138.662-146.795 181.348-189.745l55.98-55.58c5.27-4.99 10.323-8.159 16.114-12.8 58.068-46.693 44.787-38.125 121.977-79.64 18.441-9.913 31.016-22.088 50.202-36.327 10.167-7.555 9.598-4.228 10.418-19.955-14.634 6.236-26.316 16.552-40.09 26.264-76.165 53.755-163.28 109.003-234.813 165.038-45.586 35.7-67.129 54.724-109.602 92.088-22.036 19.403-61.743 60.319-81.818 83.725-76.765 89.455-134.995 208.067-184.44 316.355-46.995 102.95-120.74 275.236-150.586 382.511-10.644 38.24-41.286 195.948-52.053 214.853zm2131.434-152.97.026 434.076c-8.955 5.657-18.616 11.936-30.404 12.906l-.2-432.581zm.026-301.768-.863 261.89-29.553 11.738-.12-260.202zm34.462-65.946-.013-150.48h-34.5l-.026 173.805-29.676 14.094-.609-151.25-34.518.013-.013 971.175c7.518 3.582 7.373 5.59 15.472 10.66 23.356-9.01 208.098-103.604 246.46-122.803l246.589-126.86.544-41.172c-25.388 7.866-74.685 36.232-102.23 50.032-49.82 24.976-290.473 150-307.506 151.382l.055-429.323c59.319-37.044 276.579-134.659 318.482-161.23 37.312-23.67 42.779-22.619 71.494-39.946l-.093-37.533c-28.716 10.869-66.65 31.122-95.194 46.624-42.566 23.113-280.225 144.304-294.719 146.328v-254.229c16.276-10.737 153.462-75.977 183.109-90.16 31.268-14.97 60.544-29.902 92.262-44.499 37.657-17.31 15.107-11.588 42.822-25.545 15.408-7.76 35.062-14.068 47.394-24.525l1.187-37.976c-52.07 16.94-338.522 169.997-366.774 173.418zm1297.355 828.029 5.054-1.796h25.218l4.27 1.796v-963.471l-.016-14.396-34.539-.03zm-64.828 36.019 30.26-2.101 4.296 2.101-.013-976.684-34.518.068zM3486.449 1287.266l-.025 974.277 5.045-1.783 25.214-.013 4.284 1.796v-977.88l-34.488.025z" style="fill:#1b1918;fill-rule:evenodd"/>
</svg>